<svg width="256" height="256" viewBox="0 0 256 256" fill="none" xmlns="http://www.w3.org/2000/svg">
<g clip-path="url(#clip0_2339_377)">
<rect width="256" height="256" rx="21" fill="url(#paint0_linear_2339_377)" fill-opacity="0.2"/>
<rect x="95.017" y="81.21" width="197.071" height="218.93" rx="34" transform="rotate(12.0866 95.017 81.21)" fill="#0D2F4E"/>
<rect x="90.0221" y="73.493" width="210.071" height="231.93" rx="40.5" transform="rotate(12.0866 90.0221 73.493)" stroke="white" stroke-opacity="0.3" stroke-width="13"/>
<path d="M35.5 12C35.5 12 35.6453 24.9107 40.8673 30.1327C46.0893 35.3547 59 35.5 59 35.5C59 35.5 46.0893 35.6453 40.8673 40.8673C35.6453 46.0893 35.5 59 35.5 59C35.5 59 35.3547 46.0893 30.1327 40.8673C24.9107 35.6453 12 35.5 12 35.5C12 35.5 24.9107 35.3547 30.1327 30.1327C35.3547 24.9107 35.5 12 35.5 12Z" fill="white" fill-opacity="0.83"/>
<path d="M97.3872 203.405C95.0649 202.907 93.2674 201.675 91.9948 199.709C90.7222 197.742 90.3411 195.567 90.8516 193.184C91.3556 190.831 92.5723 189.03 94.5016 187.782C96.468 186.509 98.6276 186.125 100.981 186.629C103.364 187.139 105.192 188.378 106.465 190.344C107.744 192.28 108.131 194.425 107.627 196.777C107.117 199.161 105.878 200.989 103.912 202.261C101.946 203.534 99.7706 203.915 97.3872 203.405ZM127.337 209.053L137.852 159.963L147.569 162.045L146.332 167.82L147.661 168.105L145.128 169.863C146.566 167.327 148.228 165.461 150.113 164.267C152.036 163.049 154.159 162.689 156.481 163.186C158.62 163.645 160.315 164.759 161.566 166.529C162.853 168.275 163.45 170.336 163.357 172.713L162.273 170.611L164.336 171.053L162.303 172.487C163.459 170.37 165.139 168.796 167.341 167.766C169.543 166.735 171.912 166.492 174.448 167.035C176.496 167.474 178.069 168.258 179.169 169.389C180.3 170.526 181.07 171.857 181.478 173.383C181.886 174.908 182.061 176.48 182.002 178.097C181.943 179.714 181.767 181.21 181.472 182.585L173.677 218.979L162.768 216.642L170.318 181.395C170.632 179.928 170.575 178.701 170.147 177.715C169.75 176.735 168.94 176.114 167.718 175.852C166.587 175.61 165.552 175.82 164.611 176.481C163.677 177.112 163.043 178.207 162.709 179.765L155.159 215.012L145.855 213.019L153.405 177.772C153.745 176.183 153.679 174.923 153.208 173.991C152.736 173.059 151.905 172.465 150.713 172.21C149.613 171.974 148.593 172.187 147.652 172.848C146.711 173.51 146.068 174.65 145.721 176.27L138.2 211.38L127.337 209.053ZM222.884 230.286C220.424 228.64 218.478 226.833 217.046 224.865C215.645 222.903 214.95 221.076 214.961 219.385L215.818 220.527L212.06 219.722L215.166 214.395L220.871 187.765L219.934 182.291L220.988 182.517L226.565 156.482L239.123 159.172L227.45 213.671C227.155 215.046 227.193 216.364 227.562 217.625C227.968 218.863 228.641 219.822 229.582 220.503L222.884 230.286ZM198.729 225.112C195.001 224.313 191.954 222.574 189.588 219.894C187.252 217.221 185.726 213.826 185.01 209.709C184.294 205.593 184.489 200.953 185.595 195.789C186.688 190.686 188.42 186.407 190.79 182.951C193.16 179.496 195.973 177.031 199.229 175.555C202.516 174.086 206.054 173.757 209.843 174.569C213.601 175.374 216.633 177.11 218.938 179.777C221.274 182.45 222.797 185.86 223.506 190.007C224.253 194.13 224.083 198.728 222.997 203.8C221.897 208.934 220.162 213.228 217.792 216.683C215.422 220.139 212.606 222.619 209.343 224.126C206.087 225.601 202.549 225.93 198.729 225.112ZM204.281 215.084C206.267 215.509 208.121 215.283 209.843 214.405C211.602 213.504 213.13 212.041 214.426 210.018C215.722 207.995 216.685 205.516 217.313 202.583C217.941 199.649 218.091 197.013 217.761 194.673C217.431 192.333 216.661 190.41 215.449 188.905C214.268 187.405 212.7 186.446 210.744 186.027C208.758 185.602 206.889 185.825 205.136 186.696C203.414 187.573 201.905 189.024 200.609 191.047C199.35 193.046 198.409 195.497 197.787 198.4C197.159 201.334 196.991 203.982 197.284 206.346C197.607 208.716 198.356 210.666 199.53 212.196C200.742 213.702 202.325 214.665 204.281 215.084Z" fill="#A0D2EB"/>
</g>
<defs>
<linearGradient id="paint0_linear_2339_377" x1="128" y1="0" x2="128" y2="256" gradientUnits="userSpaceOnUse">
<stop stop-color="#1A5B8F"/>
<stop offset="1" stop-color="#7D92A9"/>
</linearGradient>
<clipPath id="clip0_2339_377">
<rect width="256" height="256" rx="21" fill="white"/>
</clipPath>
</defs>
</svg>
